<svg width="16" height="16" viewBox="0 0 16 16" fill="none" xmlns="http://www.w3.org/2000/svg"><path fill-rule="evenodd" clip-rule="evenodd" d="M8 16A8 8 0 1 1 8 0a8 8 0 0 1 0 16Zm5.38-4.27a6.55 6.55 0 1 0-10.76 0c.82-1.08 2.74-1.55 5.37-1.55-1.62 0-2.9-1.15-2.9-3.63A2.8 2.8 0 0 1 8 3.64c1.76 0 2.9 1.4 2.9 3.05 0 2.38-1.28 3.49-2.9 3.5 2.64 0 4.56.46 5.38 1.54Zm-1.04 1.17c-.21-.76-1.74-1.26-4.34-1.26-2.6 0-4.13.5-4.34 1.26a6.52 6.52 0 0 0 8.68 0Zm-5.8-6.35c0 1.65.6 2.18 1.46 2.18s1.45-.51 1.45-2.04c0-.9-.57-1.6-1.45-1.6-.92 0-1.45.6-1.45 1.46Z" fill="#fff"/></svg>